<?xml version="1.0" standalone="no"?>
<!DOCTYPE svg PUBLIC "-//W3C//DTD SVG 20010904//EN"
 "http://www.w3.org/TR/2001/REC-SVG-20010904/DTD/svg10.dtd">
<svg version="1.0" xmlns="http://www.w3.org/2000/svg"
 width="840.000000pt" height="1024.000000pt" viewBox="0 0 840.000000 1024.000000"
 preserveAspectRatio="xMidYMid meet">
<metadata>
Created by potrace 1.16, written by Peter Selinger 2001-2019
</metadata>
<g transform="translate(0.000000,1024.000000) scale(0.100000,-0.100000)"
fill="#000000" stroke="none">
<path d="M7635 10008 c-163 -397 -302 -617 -521 -828 -179 -172 -345 -285
-759 -515 -295 -164 -424 -240 -560 -333 -514 -350 -920 -833 -1064 -1267 -63
-190 -75 -277 -75 -525 0 -194 3 -239 22 -327 74 -342 235 -637 474 -869 162
-158 307 -253 468 -309 453 -157 888 -172 1263 -44 122 41 299 134 417 217
112 79 311 273 397 387 368 489 595 1125 688 1930 21 183 21 1036 0 1215 -56
479 -189 893 -362 1125 -51 68 -284 325 -302 333 -4 1 -42 -85 -86 -190z m229
-779 c138 -458 175 -1123 96 -1746 -118 -926 -468 -1649 -950 -1967 -337 -222
-747 -254 -1228 -95 -112 37 -208 99 -322 206 -444 417 -524 1091 -189 1598
206 312 463 565 802 789 142 94 189 121 582 340 248 139 483 293 615 404 184
154 373 370 490 559 43 69 45 71 57 49 7 -12 28 -74 47 -137z"/>
<path d="M3051 9848 c-245 -639 -464 -943 -886 -1230 -129 -88 -212 -137 -514
-305 -270 -150 -423 -243 -555 -336 -480 -339 -867 -804 -1009 -1213 -68 -195
-82 -290 -82 -549 1 -200 4 -243 23 -332 97 -446 347 -815 718 -1062 87 -58
124 -75 256 -119 482 -160 905 -161 1308 -3 330 129 641 405 880 781 258 407
457 1017 534 1645 45 365 54 851 22 1175 -52 525 -173 942 -351 1210 -47 71
-309 360 -326 360 -5 0 -13 -10 -18 -22z m164 -953 c97 -323 142 -728 132
-1190 -16 -699 -155 -1317 -407 -1814 -259 -512 -606 -804 -1041 -877 -292
-48 -744 33 -945 171 -268 183 -466 494 -525 825 -20 109 -17 336 5 440 41
197 100 332 221 505 129 184 262 334 414 468 226 199 377 299 818 543 260 144
394 224 513 305 288 197 545 459 711 727 l43 70 14 -31 c7 -18 28 -81 47 -142z"/>
<path d="M4000 5213 c-148 -358 -194 -454 -298 -613 -201 -309 -438 -511 -902
-771 -397 -223 -475 -268 -584 -337 -395 -250 -714 -556 -961 -922 -127 -187
-202 -359 -249 -571 -91 -406 -28 -829 175 -1190 134 -237 352 -464 585 -607
109 -68 407 -156 631 -187 168 -24 464 -17 606 14 600 129 1064 564 1375 1291
484 1129 476 2874 -17 3606 -48 72 -296 351 -322 362 -4 2 -21 -32 -39 -75z
m169 -857 c106 -325 159 -769 148 -1231 -19 -775 -189 -1463 -485 -1963 -361
-609 -870 -849 -1510 -711 -276 60 -394 121 -568 294 -151 150 -242 296 -309
498 -95 287 -83 591 36 877 102 244 406 610 690 830 186 144 320 228 707 444
308 171 466 269 615 382 225 170 400 355 550 581 45 68 83 123 84 123 1 0 20
-56 42 -124z"/>
</g>
</svg>
